<?xml version="1.0" encoding="UTF-8" standalone="no"?>
<!-- Created with Inkscape (http://www.inkscape.org/) -->

<svg
   width="1440"
   height="1080"
   viewBox="0 0 360 270"
   version="1.1"
   id="svg5"
   xmlns="http://www.w3.org/2000/svg"
   xmlns:svg="http://www.w3.org/2000/svg"
   xmlns:rdf="http://www.w3.org/1999/02/22-rdf-syntax-ns#"
   xmlns:cc="http://creativecommons.org/ns#"
   xmlns:dc="http://purl.org/dc/elements/1.1/">
  <defs
     id="defs2" />
  <g
     id="layer1">
    <path
       id="path11101"
       style="display:inline;fill:#003e33;fill-opacity:1;stroke:#ce8a00;stroke-width:0;stroke-linejoin:bevel;stroke-miterlimit:4;stroke-dasharray:none;paint-order:fill markers stroke"
       d="m 65.454544,36.818175 c 12.292975,0.942284 24.15312,7.449644 28.872873,18.839498 5.06592,12.229484 2.266037,26.3064 -7.094116,35.66653 -9.36011,9.360127 -22.173556,11.020127 -34.40304,5.954205 C 41.440407,92.558632 33.669556,81.838401 32.727272,69.545448 v 65.454542 65.45454 c 0.942284,-12.29295 8.713135,-23.01318 20.102989,-27.73296 12.229484,-5.06592 25.04293,-3.40592 34.40304,5.95421 9.360153,9.36013 12.160036,23.43704 7.094116,35.66655 -4.719753,11.38981 -16.579898,17.89719 -28.872873,18.83947 h 32.727273 49.090903 l 32.72727,-32.72727 32.72728,32.72727 h 49.09091 32.72728 c -12.29296,-0.94228 -24.1531,-7.44966 -28.87288,-18.83947 -5.0659,-12.22949 -2.26603,-26.30642 7.09414,-35.66655 9.36011,-9.36013 22.17353,-11.02013 34.40302,-5.95421 11.38985,4.71978 19.16073,15.44001 20.10298,27.73296 V 134.99999 69.545448 c -0.94225,12.292953 -8.71313,23.013184 -20.10298,27.73296 -12.22949,5.065922 -25.04291,3.405922 -34.40302,-5.954205 -9.36017,-9.36013 -12.16004,-23.437046 -7.09414,-35.66653 4.71978,-11.389854 16.57992,-17.897214 28.87288,-18.839498 H 261.81818 212.72727 L 179.99999,69.545448 147.27272,36.818175 H 98.181817 Z" />
    <g
       aria-label="♠"
       id="text15735"
       style="font-size:77.8983px;line-height:1.15;font-family:Dearest;-inkscape-font-specification:Dearest;display:inline;fill:#1b1b1d;fill-opacity:1;stroke:#ffff00;stroke-width:0;stroke-linejoin:bevel;stroke-miterlimit:4;stroke-dasharray:none;paint-order:fill markers stroke"
       transform="matrix(2.1710164,0,0,2.1710164,-471.3049,-191.23785)">
      <path
         id="path19853"
         style="font-family:Cambria;-inkscape-font-specification:Cambria;fill:#1b1b1d;fill-opacity:1;stroke:#ffff00;stroke-width:0;stroke-miterlimit:4;stroke-dasharray:none"
         d="m 1199.9258,383.7207 -0.4531,0.45508 c -8.9826,16.6531 -29.3699,44.45785 -61.1622,83.41602 -18.8735,20.48838 -28.3655,40.42474 -28.3496,58.89453 -40.6003,3.8e-4 -73.5133,32.91336 -73.5136,73.51367 3e-4,40.60031 32.9133,73.51329 73.5136,73.51367 -0.016,18.46979 9.4761,38.40615 28.3496,58.89453 31.7923,38.95817 52.1796,66.76292 61.1622,83.41602 l 0.4531,0.45508 h 0.4531 c 9.4872,-16.85497 25.1312,-39.21033 46.9316,-67.06641 23.92,-28.05796 33.9297,-44.56953 36.7872,-50.7168 3.1063,-6.89404 5.2683,-15.77359 5.9414,-24.98242 40.5783,-0.0264 73.5136,-32.92918 73.5136,-73.51367 0,-40.58449 -32.9353,-73.48724 -73.5136,-73.51367 -0.6731,-9.20883 -2.8351,-18.08838 -5.9414,-24.98242 -2.8575,-6.14727 -12.8672,-22.65884 -36.7872,-50.7168 -21.8004,-27.85608 -37.4444,-50.21144 -46.9316,-67.06641 z"
         transform="matrix(0.25124387,0,0,0.25124387,-1.4926418,-0.4766795)" />
    </g>
    <path
       id="path24074"
       style="display:inline;fill:none;fill-opacity:1;stroke:#ce8a00;stroke-width:5.45455;stroke-linejoin:bevel;stroke-miterlimit:4;stroke-dasharray:none;paint-order:fill markers stroke"
       d="m 65.454544,36.818175 c 12.292975,0.942284 24.15312,7.449644 28.872873,18.839498 5.06592,12.229484 2.266037,26.3064 -7.094116,35.66653 -9.36011,9.360127 -22.173556,11.020127 -34.40304,5.954205 C 41.440407,92.558632 33.669556,81.838401 32.727272,69.545448 v 65.454542 65.45454 c 0.942284,-12.29295 8.713135,-23.01318 20.102989,-27.73296 12.229484,-5.06592 25.04293,-3.40592 34.40304,5.95421 9.360153,9.36013 12.160036,23.43704 7.094116,35.66655 -4.719753,11.38981 -16.579898,17.89719 -28.872873,18.83947 h 32.727273 49.090903 l 32.72727,-32.72727 32.72728,32.72727 h 49.09091 32.72728 c -12.29296,-0.94228 -24.1531,-7.44966 -28.87288,-18.83947 -5.0659,-12.22949 -2.26603,-26.30642 7.09414,-35.66655 9.36011,-9.36013 22.17353,-11.02013 34.40302,-5.95421 11.38985,4.71978 19.16073,15.44001 20.10298,27.73296 V 134.99999 69.545448 c -0.94225,12.292953 -8.71313,23.013184 -20.10298,27.73296 -12.22949,5.065922 -25.04291,3.405922 -34.40302,-5.954205 -9.36017,-9.36013 -12.16004,-23.437046 -7.09414,-35.66653 4.71978,-11.389854 16.57992,-17.897214 28.87288,-18.839498 H 261.81818 212.72727 L 179.99999,69.545448 147.27272,36.818175 H 98.181817 Z" />
    <g
       aria-label="♠"
       id="g24096"
       style="font-size:77.8983px;line-height:1.15;font-family:Dearest;-inkscape-font-specification:Dearest;display:inline;fill:none;stroke:#ce8a00;stroke-width:2.51244;stroke-linejoin:bevel;stroke-miterlimit:4;stroke-dasharray:none;stroke-dashoffset:0;stroke-opacity:1;paint-order:fill markers stroke"
       transform="matrix(2.1710164,0,0,2.1710164,-471.3049,-191.23785)">
      <path
         id="path24094"
         style="font-family:Cambria;-inkscape-font-specification:Cambria;fill:none;stroke:#ce8a00;stroke-width:10;stroke-miterlimit:4;stroke-dasharray:none;stroke-dashoffset:0;stroke-opacity:1"
         d="m 1199.9258,383.7207 -0.4531,0.45508 c -8.9826,16.6531 -29.3699,44.45785 -61.1622,83.41602 -18.8735,20.48838 -28.3655,40.42474 -28.3496,58.89453 -40.6003,3.8e-4 -73.5133,32.91336 -73.5136,73.51367 3e-4,40.60031 32.9133,73.51329 73.5136,73.51367 -0.016,18.46979 9.4761,38.40615 28.3496,58.89453 31.7923,38.95817 52.1796,66.76292 61.1622,83.41602 l 0.4531,0.45508 h 0.4531 c 9.4872,-16.85497 25.1312,-39.21033 46.9316,-67.06641 23.92,-28.05796 33.9297,-44.56953 36.7872,-50.7168 3.1063,-6.89404 5.2683,-15.77359 5.9414,-24.98242 40.5783,-0.0264 73.5136,-32.92918 73.5136,-73.51367 0,-40.58449 -32.9353,-73.48724 -73.5136,-73.51367 -0.6731,-9.20883 -2.8351,-18.08838 -5.9414,-24.98242 -2.8575,-6.14727 -12.8672,-22.65884 -36.7872,-50.7168 -21.8004,-27.85608 -37.4444,-50.21144 -46.9316,-67.06641 z"
         transform="matrix(0.25124387,0,0,0.25124387,-1.4926418,-0.4766795)" />
    </g>
    <text
       xml:space="preserve"
       style="font-style:italic;font-size:130.909px;line-height:1.15;font-family:Dearest;-inkscape-font-specification:'Dearest Italic';fill:#ffffff;stroke:#ce8a00;stroke-width:5.45455;stroke-linejoin:round;paint-order:markers stroke fill"
       x="155.07935"
       y="182.1881"
       id="text2431"><tspan
         id="tspan2429"
         style="font-style:normal;font-variant:normal;font-weight:normal;font-stretch:normal;font-family:'Dearest Open';-inkscape-font-specification:'Dearest Open';fill:#ffffff;stroke-width:5.45455"
         x="155.07935"
         y="182.1881">?</tspan></text>
    <g
       id="g60065"
       transform="matrix(2.1818181,0,0,2.1818181,-474.54544,-192.27273)">
      <g
         aria-label="G"
         id="text31610"
         style="font-size:60px;line-height:1.15;font-family:Cambria;-inkscape-font-specification:Cambria;fill:#ce8a00;stroke:#ce8a00;stroke-width:0.662003;stroke-linejoin:bevel;stroke-miterlimit:4;stroke-dasharray:none;paint-order:fill markers stroke"
         transform="matrix(1.175991,0.27821524,-0.27821524,1.175991,47.897169,107.07597)">
        <path
           d="m 180.60224,32.773092 c -1.76775,0.394276 -3.29618,0.917803 -5.12061,0.936093 -1.68,0 -3.10801,-0.52416 -4.18801,-1.20416 -1.32,-0.8 -1.9071,-2.130962 -1.9071,-3.730962 0,-1.24 0.48,-2.34 1.44,-3.3 1,-0.96 2.12,-1.44 3.36,-1.44 1,0 1.88,0.4 2.64,1.2 0.8,0.76 1.2,1.64 1.2,2.64 0,0.68 -0.26,1.26 -0.78,1.74 -0.48,0.44 -1.06,0.66 -1.74,0.66 -1.6,0 -2.4,-0.56 -2.4,-1.68 0,-1.16 0.52,-1.74 1.56,-1.74 0.36,0 0.74,0.24 1.14,0.72 0.4,0.44 0.62,0.66 0.66,0.66 0.24,0 0.36,-0.24 0.36,-0.72 0,-1.48 -0.8,-2.22 -2.4,-2.22 -1.12,0 -2.06,0.4 -2.82,1.2 -0.76,0.76 -1.14,1.7 -1.14,2.82 0,1.08 0.6,1.9 1.8,2.46 0.88,0.4 1.86159,0.590376 3.10159,0.590376 1.68,0 3.66749,-0.674011 5.54749,-1.994011 z"
           style="font-family:Dearest;-inkscape-font-specification:Dearest;stroke-width:0.662003;stroke-miterlimit:4;stroke-dasharray:none"
           id="path58253" />
      </g>
      <g
         aria-label="G"
         id="g60059"
         style="font-size:60px;line-height:1.15;font-family:Cambria;-inkscape-font-specification:Cambria;fill:#ce8a00;stroke:#ce8a00;stroke-width:0.662003;stroke-linejoin:bevel;stroke-miterlimit:4;stroke-dasharray:none;paint-order:fill markers stroke"
         transform="matrix(-1.175991,0.27821524,0.27821524,1.175991,551.69349,107.07598)">
        <path
           d="m 180.60224,32.773092 c -1.76775,0.394276 -3.29618,0.917803 -5.12061,0.936093 -1.68,0 -3.10801,-0.52416 -4.18801,-1.20416 -1.32,-0.8 -1.9071,-2.130962 -1.9071,-3.730962 0,-1.24 0.48,-2.34 1.44,-3.3 1,-0.96 2.12,-1.44 3.36,-1.44 1,0 1.88,0.4 2.64,1.2 0.8,0.76 1.2,1.64 1.2,2.64 0,0.68 -0.26,1.26 -0.78,1.74 -0.48,0.44 -1.06,0.66 -1.74,0.66 -1.6,0 -2.4,-0.56 -2.4,-1.68 0,-1.16 0.52,-1.74 1.56,-1.74 0.36,0 0.74,0.24 1.14,0.72 0.4,0.44 0.62,0.66 0.66,0.66 0.24,0 0.36,-0.24 0.36,-0.72 0,-1.48 -0.8,-2.22 -2.4,-2.22 -1.12,0 -2.06,0.4 -2.82,1.2 -0.76,0.76 -1.14,1.7 -1.14,2.82 0,1.08 0.6,1.9 1.8,2.46 0.88,0.4 1.86159,0.590376 3.10159,0.590376 1.68,0 3.66749,-0.674011 5.54749,-1.994011 z"
           style="font-family:Dearest;-inkscape-font-specification:Dearest;stroke-width:0.662003;stroke-miterlimit:4;stroke-dasharray:none"
           id="path60057" />
      </g>
    </g>
    <g
       id="g60075"
       transform="matrix(2.1818181,0,0,-2.1818181,-474.54544,462.37702)">
      <g
         aria-label="G"
         id="g60069"
         style="font-size:60px;line-height:1.15;font-family:Cambria;-inkscape-font-specification:Cambria;fill:#ce8a00;stroke:#ce8a00;stroke-width:0.662003;stroke-linejoin:bevel;stroke-miterlimit:4;stroke-dasharray:none;paint-order:fill markers stroke"
         transform="matrix(1.175991,0.27821524,-0.27821524,1.175991,47.897169,107.07597)">
        <path
           d="m 180.60224,32.773092 c -1.76775,0.394276 -3.29618,0.917803 -5.12061,0.936093 -1.68,0 -3.10801,-0.52416 -4.18801,-1.20416 -1.32,-0.8 -1.9071,-2.130962 -1.9071,-3.730962 0,-1.24 0.48,-2.34 1.44,-3.3 1,-0.96 2.12,-1.44 3.36,-1.44 1,0 1.88,0.4 2.64,1.2 0.8,0.76 1.2,1.64 1.2,2.64 0,0.68 -0.26,1.26 -0.78,1.74 -0.48,0.44 -1.06,0.66 -1.74,0.66 -1.6,0 -2.4,-0.56 -2.4,-1.68 0,-1.16 0.52,-1.74 1.56,-1.74 0.36,0 0.74,0.24 1.14,0.72 0.4,0.44 0.62,0.66 0.66,0.66 0.24,0 0.36,-0.24 0.36,-0.72 0,-1.48 -0.8,-2.22 -2.4,-2.22 -1.12,0 -2.06,0.4 -2.82,1.2 -0.76,0.76 -1.14,1.7 -1.14,2.82 0,1.08 0.6,1.9 1.8,2.46 0.88,0.4 1.86159,0.590376 3.10159,0.590376 1.68,0 3.66749,-0.674011 5.54749,-1.994011 z"
           style="font-family:Dearest;-inkscape-font-specification:Dearest;stroke-width:0.662003;stroke-miterlimit:4;stroke-dasharray:none"
           id="path60067" />
      </g>
      <g
         aria-label="G"
         id="g60073"
         style="font-size:60px;line-height:1.15;font-family:Cambria;-inkscape-font-specification:Cambria;fill:#ce8a00;stroke:#ce8a00;stroke-width:0.662003;stroke-linejoin:bevel;stroke-miterlimit:4;stroke-dasharray:none;paint-order:fill markers stroke"
         transform="matrix(-1.175991,0.27821524,0.27821524,1.175991,551.69349,107.07598)">
        <path
           d="m 180.60224,32.773092 c -1.76775,0.394276 -3.29618,0.917803 -5.12061,0.936093 -1.68,0 -3.10801,-0.52416 -4.18801,-1.20416 -1.32,-0.8 -1.9071,-2.130962 -1.9071,-3.730962 0,-1.24 0.48,-2.34 1.44,-3.3 1,-0.96 2.12,-1.44 3.36,-1.44 1,0 1.88,0.4 2.64,1.2 0.8,0.76 1.2,1.64 1.2,2.64 0,0.68 -0.26,1.26 -0.78,1.74 -0.48,0.44 -1.06,0.66 -1.74,0.66 -1.6,0 -2.4,-0.56 -2.4,-1.68 0,-1.16 0.52,-1.74 1.56,-1.74 0.36,0 0.74,0.24 1.14,0.72 0.4,0.44 0.62,0.66 0.66,0.66 0.24,0 0.36,-0.24 0.36,-0.72 0,-1.48 -0.8,-2.22 -2.4,-2.22 -1.12,0 -2.06,0.4 -2.82,1.2 -0.76,0.76 -1.14,1.7 -1.14,2.82 0,1.08 0.6,1.9 1.8,2.46 0.88,0.4 1.86159,0.590376 3.10159,0.590376 1.68,0 3.66749,-0.674011 5.54749,-1.994011 z"
           style="font-family:Dearest;-inkscape-font-specification:Dearest;stroke-width:0.662003;stroke-miterlimit:4;stroke-dasharray:none"
           id="path60071" />
      </g>
    </g>
    <g
       aria-label="A"
       id="text61978"
       style="font-size:60px;line-height:1.15;font-family:Dearest;-inkscape-font-specification:Dearest;fill:#ce8a00;stroke:#003e33;stroke-width:0;stroke-linejoin:bevel;paint-order:fill markers stroke"
       transform="matrix(-2.1818181,0,0,2.1818181,412.16554,63.613738)">
      <path
         d="m 170.37858,35.878698 c -1.44,0.6 -2.72,1.66 -3.84,3.18 -1.08,1.52 -1.62,3.04 -1.62,4.56 0,1.48 0.6,2.22 1.8,2.22 0.96,0 1.44,-0.4 1.44,-1.2 -1,-0.4 -1.5,-0.9 -1.5,-1.5 0,-0.76 0.48,-1.14 1.44,-1.14 1,0 1.5,0.72 1.5,2.16 0,0.72 -0.26,1.36 -0.78,1.92 -0.48,0.56 -1.08,0.84 -1.8,0.84 -2.2,0 -3.3,-1.4 -3.3,-4.2 0,-0.72 0.26,-1.56 0.78,-2.52 0.56,-0.96 0.84,-1.54 0.84,-1.74 0,-0.32 -0.24,-0.86 -0.72,-1.62 -0.48,-0.76 -0.88,-1.26 -1.2,-1.5 -0.04,-0.04 -0.3,-0.14 -0.78,-0.3 -0.48,-0.2 -0.72,-0.38 -0.72,-0.54 0,-0.12 0.36,-0.44 1.08,-0.96 0.88,-0.64 1.54,-1.24 1.98,-1.8 0.72,-0.92 1.08,-1.96 1.08,-3.12 -0.4,-0.52 -1.08,-1.26 -2.04,-2.22 -0.44,-0.16 -1.04,-0.46 -1.8,-0.9 l -0.12,-0.3 v -0.06 c 0.52,-0.44 1.06,-0.88 1.62,-1.32 1.08,-0.92 1.92,-2 2.52,-3.24 v -1.14 l -0.6,-0.6 h -0.24 c -0.6,0 -0.9,0.14 -0.9,0.42 0,0.08 0.08,0.24 0.24,0.48 0.2,0.2 0.3,0.4 0.3,0.6 0,0.48 -0.38,0.72 -1.14,0.72 -0.6,0 -0.9,-0.44 -0.9,-1.32 0,-0.52 0.2,-0.96 0.6,-1.32 0.44,-0.4 0.94,-0.6 1.5,-0.6 0.64,0 1.16,0.28 1.56,0.84 0.4,0.52 0.6,1.1 0.6,1.74 0,0.16 -0.04,0.4 -0.12,0.72 -0.08,0.28 -0.12,0.5 -0.12,0.66 0,0.6 0.38,1.32 1.14,2.16 0.76,0.8 1.44,1.2 2.04,1.2 0.04,0 0.06,0.01239 0.18,-0.02761 z m -3.54,-5.16 c 0.56,1.28 1.64,2.22 3.24,2.82 l 0.3,0.10059 0.003,-7.720358 c -0.88,0 -1.70338,0.479768 -2.46338,1.439768 -0.72,0.92 -1.08,1.84 -1.08,2.76 z"
         id="path67097" />
    </g>
    <path
       style="fill:#ce8a00;fill-opacity:1;stroke:#ce8a00;stroke-width:1.63636;stroke-linejoin:bevel;stroke-miterlimit:4;stroke-dasharray:none;stroke-dashoffset:0;stroke-opacity:1;paint-order:fill markers stroke"
       d="M 39.585447,182.42666 V 88.19853"
       id="path65663" />
    <path
       style="fill:#ce8a00;fill-opacity:1;stroke:#ce8a00;stroke-width:1.63636;stroke-linejoin:bevel;stroke-miterlimit:4;stroke-dasharray:none;stroke-dashoffset:0;stroke-opacity:1;paint-order:fill markers stroke"
       d="M 320.28402,182.37823 V 88.150116"
       id="path67095" />
    <g
       aria-label="A"
       id="g67867"
       style="font-size:60px;line-height:1.15;font-family:Dearest;-inkscape-font-specification:Dearest;fill:#ce8a00;stroke:#003e33;stroke-width:0;stroke-linejoin:bevel;paint-order:fill markers stroke"
       transform="matrix(2.1818181,0,0,2.1818181,-52.125709,63.613738)">
      <path
         d="m 170.37858,35.878698 c -1.44,0.6 -2.72,1.66 -3.84,3.18 -1.08,1.52 -1.62,3.04 -1.62,4.56 0,1.48 0.6,2.22 1.8,2.22 0.96,0 1.44,-0.4 1.44,-1.2 -1,-0.4 -1.5,-0.9 -1.5,-1.5 0,-0.76 0.48,-1.14 1.44,-1.14 1,0 1.5,0.72 1.5,2.16 0,0.72 -0.26,1.36 -0.78,1.92 -0.48,0.56 -1.08,0.84 -1.8,0.84 -2.2,0 -3.3,-1.4 -3.3,-4.2 0,-0.72 0.26,-1.56 0.78,-2.52 0.56,-0.96 0.84,-1.54 0.84,-1.74 0,-0.32 -0.24,-0.86 -0.72,-1.62 -0.48,-0.76 -0.88,-1.26 -1.2,-1.5 -0.04,-0.04 -0.3,-0.14 -0.78,-0.3 -0.48,-0.2 -0.72,-0.38 -0.72,-0.54 0,-0.12 0.36,-0.44 1.08,-0.96 0.88,-0.64 1.54,-1.24 1.98,-1.8 0.72,-0.92 1.08,-1.96 1.08,-3.12 -0.4,-0.52 -1.08,-1.26 -2.04,-2.22 -0.44,-0.16 -1.04,-0.46 -1.8,-0.9 l -0.12,-0.3 v -0.06 c 0.52,-0.44 1.06,-0.88 1.62,-1.32 1.08,-0.92 1.92,-2 2.52,-3.24 v -1.14 l -0.6,-0.6 h -0.24 c -0.6,0 -0.9,0.14 -0.9,0.42 0,0.08 0.08,0.24 0.24,0.48 0.2,0.2 0.3,0.4 0.3,0.6 0,0.48 -0.38,0.72 -1.14,0.72 -0.6,0 -0.9,-0.44 -0.9,-1.32 0,-0.52 0.2,-0.96 0.6,-1.32 0.44,-0.4 0.94,-0.6 1.5,-0.6 0.64,0 1.16,0.28 1.56,0.84 0.4,0.52 0.6,1.1 0.6,1.74 0,0.16 -0.04,0.4 -0.12,0.72 -0.08,0.28 -0.12,0.5 -0.12,0.66 0,0.6 0.38,1.32 1.14,2.16 0.76,0.8 1.44,1.2 2.04,1.2 0.04,0 0.06,0.01239 0.18,-0.02761 z m -3.54,-5.16 c 0.56,1.28 1.64,2.22 3.24,2.82 l 0.3,0.10059 0.003,-7.720358 c -0.88,0 -1.70338,0.479768 -2.46338,1.439768 -0.72,0.92 -1.08,1.84 -1.08,2.76 z"
         id="path67865" />
    </g>
    <g
       id="g70227"
       transform="matrix(2.1818181,0,0,2.1818181,-474.54544,-192.27273)">
      <g
         aria-label="G"
         id="text68487"
         style="font-size:60px;line-height:1.15;font-family:Dearest;-inkscape-font-specification:Dearest;fill:#ce8a00;stroke:#ce8a00;stroke-width:0;stroke-linejoin:bevel;paint-order:fill markers stroke"
         transform="matrix(-0.82818938,0.56044835,0.56044835,0.82818938,484.95868,-45.712139)">
        <path
           d="m 209.56716,44.637124 c 0,-0.68 0.78,-1.5 2.34,-2.46 l 7.62,-4.62 c 0.16,-0.12 0.66,-0.58 1.5,-1.38 0.88,-0.84 1.34,-1.26 1.38,-1.26 0.24,0 0.36,0.12 0.36,0.36 0,0.72 -0.58,1.68 -1.74,2.88 l 0.12,0.12 c 2,0.84 3,1.94 3,3.3 0,1 -0.32,1.86 -0.96,2.58 -0.6,0.72 -1.4,1.08 -2.4,1.08 -0.88,0 -1.66,-0.24 -2.34,-0.72 -0.68,-0.48 -1.02,-1.14 -1.02,-1.98 0,-1.32 0.48,-1.98 1.44,-1.98 0.8,0 1.2,0.4 1.2,1.2 -0.16,0.48 -0.64,0.82 -1.44,1.02 l -0.12,0.24 c 0,0.68 0.54,1.02 1.62,1.02 0.72,0 1.32,-0.24 1.8,-0.72 0.48,-0.52 0.72,-1.14 0.72,-1.86 0,-0.92 -0.26,-1.58 -0.78,-1.98 -1,-0.28 -1.64,-0.42 -1.92,-0.42 -0.96,0 -1.8,0.38 -2.52,1.14 -0.44,0.48 -0.9,1.2 -1.38,2.16 -0.36,0.76 -0.62,1.14 -0.78,1.14 -0.16,0 -0.44,-0.06 -0.84,-0.18 -0.4,-0.16 -0.7,-0.24 -0.9,-0.24 -0.68,0 -1.28,0.22 -1.8,0.66 -0.52,0.44 -1.04,0.9 -1.56,1.38 l -0.3,0.12 c -0.2,0 -0.3,-0.2 -0.3,-0.6 z"
           id="path69692" />
      </g>
      <g
         aria-label="G"
         id="g70132"
         style="font-size:60px;line-height:1.15;font-family:Dearest;-inkscape-font-specification:Dearest;fill:#ce8a00;stroke:#ce8a00;stroke-width:0;stroke-linejoin:bevel;paint-order:fill markers stroke"
         transform="rotate(34.08681,132.07744,164.77704)">
        <path
           d="m 209.56716,44.637124 c 0,-0.68 0.78,-1.5 2.34,-2.46 l 7.62,-4.62 c 0.16,-0.12 0.66,-0.58 1.5,-1.38 0.88,-0.84 1.34,-1.26 1.38,-1.26 0.24,0 0.36,0.12 0.36,0.36 0,0.72 -0.58,1.68 -1.74,2.88 l 0.12,0.12 c 2,0.84 3,1.94 3,3.3 0,1 -0.32,1.86 -0.96,2.58 -0.6,0.72 -1.4,1.08 -2.4,1.08 -0.88,0 -1.66,-0.24 -2.34,-0.72 -0.68,-0.48 -1.02,-1.14 -1.02,-1.98 0,-1.32 0.48,-1.98 1.44,-1.98 0.8,0 1.2,0.4 1.2,1.2 -0.16,0.48 -0.64,0.82 -1.44,1.02 l -0.12,0.24 c 0,0.68 0.54,1.02 1.62,1.02 0.72,0 1.32,-0.24 1.8,-0.72 0.48,-0.52 0.72,-1.14 0.72,-1.86 0,-0.92 -0.26,-1.58 -0.78,-1.98 -1,-0.28 -1.64,-0.42 -1.92,-0.42 -0.96,0 -1.8,0.38 -2.52,1.14 -0.44,0.48 -0.9,1.2 -1.38,2.16 -0.36,0.76 -0.62,1.14 -0.78,1.14 -0.16,0 -0.44,-0.06 -0.84,-0.18 -0.4,-0.16 -0.7,-0.24 -0.9,-0.24 -0.68,0 -1.28,0.22 -1.8,0.66 -0.52,0.44 -1.04,0.9 -1.56,1.38 l -0.3,0.12 c -0.2,0 -0.3,-0.2 -0.3,-0.6 z"
           id="path70130" />
      </g>
    </g>
    <g
       id="g70237"
       transform="matrix(2.1818181,0,0,-2.1818181,-474.54544,462.48446)">
      <g
         aria-label="G"
         id="g70231"
         style="font-size:60px;line-height:1.15;font-family:Dearest;-inkscape-font-specification:Dearest;fill:#ce8a00;stroke:#ce8a00;stroke-width:0;stroke-linejoin:bevel;paint-order:fill markers stroke"
         transform="matrix(-0.82818938,0.56044835,0.56044835,0.82818938,484.95868,-45.712139)">
        <path
           d="m 209.56716,44.637124 c 0,-0.68 0.78,-1.5 2.34,-2.46 l 7.62,-4.62 c 0.16,-0.12 0.66,-0.58 1.5,-1.38 0.88,-0.84 1.34,-1.26 1.38,-1.26 0.24,0 0.36,0.12 0.36,0.36 0,0.72 -0.58,1.68 -1.74,2.88 l 0.12,0.12 c 2,0.84 3,1.94 3,3.3 0,1 -0.32,1.86 -0.96,2.58 -0.6,0.72 -1.4,1.08 -2.4,1.08 -0.88,0 -1.66,-0.24 -2.34,-0.72 -0.68,-0.48 -1.02,-1.14 -1.02,-1.98 0,-1.32 0.48,-1.98 1.44,-1.98 0.8,0 1.2,0.4 1.2,1.2 -0.16,0.48 -0.64,0.82 -1.44,1.02 l -0.12,0.24 c 0,0.68 0.54,1.02 1.62,1.02 0.72,0 1.32,-0.24 1.8,-0.72 0.48,-0.52 0.72,-1.14 0.72,-1.86 0,-0.92 -0.26,-1.58 -0.78,-1.98 -1,-0.28 -1.64,-0.42 -1.92,-0.42 -0.96,0 -1.8,0.38 -2.52,1.14 -0.44,0.48 -0.9,1.2 -1.38,2.16 -0.36,0.76 -0.62,1.14 -0.78,1.14 -0.16,0 -0.44,-0.06 -0.84,-0.18 -0.4,-0.16 -0.7,-0.24 -0.9,-0.24 -0.68,0 -1.28,0.22 -1.8,0.66 -0.52,0.44 -1.04,0.9 -1.56,1.38 l -0.3,0.12 c -0.2,0 -0.3,-0.2 -0.3,-0.6 z"
           id="path70229" />
      </g>
      <g
         aria-label="G"
         id="g70235"
         style="font-size:60px;line-height:1.15;font-family:Dearest;-inkscape-font-specification:Dearest;fill:#ce8a00;stroke:#ce8a00;stroke-width:0;stroke-linejoin:bevel;paint-order:fill markers stroke"
         transform="rotate(34.08681,132.07744,164.77704)">
        <path
           d="m 209.56716,44.637124 c 0,-0.68 0.78,-1.5 2.34,-2.46 l 7.62,-4.62 c 0.16,-0.12 0.66,-0.58 1.5,-1.38 0.88,-0.84 1.34,-1.26 1.38,-1.26 0.24,0 0.36,0.12 0.36,0.36 0,0.72 -0.58,1.68 -1.74,2.88 l 0.12,0.12 c 2,0.84 3,1.94 3,3.3 0,1 -0.32,1.86 -0.96,2.58 -0.6,0.72 -1.4,1.08 -2.4,1.08 -0.88,0 -1.66,-0.24 -2.34,-0.72 -0.68,-0.48 -1.02,-1.14 -1.02,-1.98 0,-1.32 0.48,-1.98 1.44,-1.98 0.8,0 1.2,0.4 1.2,1.2 -0.16,0.48 -0.64,0.82 -1.44,1.02 l -0.12,0.24 c 0,0.68 0.54,1.02 1.62,1.02 0.72,0 1.32,-0.24 1.8,-0.72 0.48,-0.52 0.72,-1.14 0.72,-1.86 0,-0.92 -0.26,-1.58 -0.78,-1.98 -1,-0.28 -1.64,-0.42 -1.92,-0.42 -0.96,0 -1.8,0.38 -2.52,1.14 -0.44,0.48 -0.9,1.2 -1.38,2.16 -0.36,0.76 -0.62,1.14 -0.78,1.14 -0.16,0 -0.44,-0.06 -0.84,-0.18 -0.4,-0.16 -0.7,-0.24 -0.9,-0.24 -0.68,0 -1.28,0.22 -1.8,0.66 -0.52,0.44 -1.04,0.9 -1.56,1.38 l -0.3,0.12 c -0.2,0 -0.3,-0.2 -0.3,-0.6 z"
           id="path70233" />
      </g>
    </g>
  </g>
  <metadata
     id="metadata1194">
    <rdf:RDF>
      <cc:License
         rdf:about="http://creativecommons.org/licenses/by-sa/4.0/">
        <cc:permits
           rdf:resource="http://creativecommons.org/ns#Reproduction" />
        <cc:permits
           rdf:resource="http://creativecommons.org/ns#Distribution" />
        <cc:requires
           rdf:resource="http://creativecommons.org/ns#Notice" />
        <cc:requires
           rdf:resource="http://creativecommons.org/ns#Attribution" />
        <cc:permits
           rdf:resource="http://creativecommons.org/ns#DerivativeWorks" />
        <cc:requires
           rdf:resource="http://creativecommons.org/ns#ShareAlike" />
      </cc:License>
      <cc:Work
         rdf:about="">
        <cc:license
           rdf:resource="http://creativecommons.org/licenses/by-sa/4.0/" />
        <dc:creator>
          <cc:Agent>
            <dc:title>Jacob Neumann</dc:title>
          </cc:Agent>
        </dc:creator>
      </cc:Work>
    </rdf:RDF>
  </metadata>
</svg>
